<svg width="16" height="19" viewBox="0 0 16 19" fill="none" xmlns="http://www.w3.org/2000/svg">
<path id="Vector" d="M14.6667 6.5H12V4.5C12 3.43913 11.5786 2.42172 10.8284 1.67157C10.0783 0.921427 9.06087 0.5 8 0.5C6.93913 0.5 5.92172 0.921427 5.17157 1.67157C4.42143 2.42172 4 3.43913 4 4.5V6.5H1.33333C0.979711 6.5 0.640573 6.64048 0.390524 6.89052C0.140476 7.14057 0 7.47971 0 7.83333V17.1667C0 17.5203 0.140476 17.8594 0.390524 18.1095C0.640573 18.3595 0.979711 18.5 1.33333 18.5H14.6667C15.0203 18.5 15.3594 18.3595 15.6095 18.1095C15.8595 17.8594 16 17.5203 16 17.1667V7.83333C16 7.47971 15.8595 7.14057 15.6095 6.89052C15.3594 6.64048 15.0203 6.5 14.6667 6.5ZM5.33333 4.5C5.33333 3.79276 5.61428 3.11448 6.11438 2.61438C6.61448 2.11428 7.29276 1.83333 8 1.83333C8.70724 1.83333 9.38552 2.11428 9.88562 2.61438C10.3857 3.11448 10.6667 3.79276 10.6667 4.5V6.5H5.33333V4.5ZM14.6667 17.1667H1.33333V7.83333H14.6667V17.1667Z" fill="white" fill-opacity="0.5"/>
</svg>
