<svg xmlns="http://www.w3.org/2000/svg" width="18" height="19" viewBox="0 0 18 19" fill="none">
  <path d="M9 0.5C7.21997 0.5 5.47991 1.02784 3.99987 2.01677C2.51983 3.00571 1.36628 4.41131 0.685088 6.05585C0.00389956 7.70038 -0.17433 9.50998 0.172936 11.2558C0.520203 13.0016 1.37737 14.6053 2.63604 15.864C3.89471 17.1226 5.49836 17.9798 7.24419 18.3271C8.99002 18.6743 10.7996 18.4961 12.4442 17.8149C14.0887 17.1337 15.4943 15.9802 16.4832 14.5001C17.4722 13.0201 18 11.28 18 9.5C17.9975 7.11382 17.0485 4.8261 15.3612 3.13882C13.6739 1.45154 11.3862 0.50252 9 0.5ZM4.33385 15.5144C4.83468 14.7311 5.52462 14.0865 6.34009 13.64C7.15555 13.1935 8.0703 12.9595 9 12.9595C9.9297 12.9595 10.8444 13.1935 11.6599 13.64C12.4754 14.0865 13.1653 14.7311 13.6662 15.5144C12.332 16.552 10.6901 17.1153 9 17.1153C7.30989 17.1153 5.66798 16.552 4.33385 15.5144ZM6.23077 8.80769C6.23077 8.25999 6.39318 7.72459 6.69747 7.26919C7.00176 6.81379 7.43425 6.45885 7.94026 6.24926C8.44627 6.03966 9.00307 5.98482 9.54025 6.09167C10.0774 6.19852 10.5709 6.46227 10.9581 6.84955C11.3454 7.23683 11.6092 7.73026 11.716 8.26744C11.8229 8.80462 11.768 9.36142 11.5584 9.86743C11.3488 10.3734 10.9939 10.8059 10.5385 11.1102C10.0831 11.4145 9.5477 11.5769 9 11.5769C8.26556 11.5769 7.56119 11.2852 7.04186 10.7658C6.52253 10.2465 6.23077 9.54214 6.23077 8.80769ZM14.6908 14.5547C13.9186 13.4358 12.8329 12.5702 11.5702 12.0667C12.2485 11.5325 12.7435 10.8001 12.9862 9.97154C13.229 9.14295 13.2076 8.25929 12.9249 7.44345C12.6422 6.62761 12.1123 5.92015 11.4088 5.41944C10.7054 4.91873 9.86343 4.64967 9 4.64967C8.13657 4.64967 7.2946 4.91873 6.59117 5.41944C5.88775 5.92015 5.35783 6.62761 5.07513 7.44345C4.79242 8.25929 4.77097 9.14295 5.01376 9.97154C5.25655 10.8001 5.75151 11.5325 6.42981 12.0667C5.16706 12.5702 4.08136 13.4358 3.30923 14.5547C2.33357 13.4575 1.69587 12.1017 1.47293 10.6505C1.24998 9.19933 1.45129 7.71462 2.05262 6.37518C2.65395 5.03574 3.62966 3.89869 4.86226 3.10094C6.09485 2.3032 7.53178 1.87877 9 1.87877C10.4682 1.87877 11.9052 2.3032 13.1377 3.10094C14.3703 3.89869 15.346 5.03574 15.9474 6.37518C16.5487 7.71462 16.75 9.19933 16.5271 10.6505C16.3041 12.1017 15.6664 13.4575 14.6908 14.5547Z" fill="white" fill-opacity="0.5"/>
</svg>